<?xml version="1.0" encoding="utf-8"?>
<!-- Generator: Adobe Illustrator 23.0.0, SVG Export Plug-In . SVG Version: 6.00 Build 0)  -->
<svg version="1.1" id="应用_拷贝_6_1_" xmlns="http://www.w3.org/2000/svg" xmlns:xlink="http://www.w3.org/1999/xlink" x="0px"
	 y="0px" viewBox="0 0 144 36" style="enable-background:new 0 0 144 36;" xml:space="preserve">
<style type="text/css">
	.st0{fill-rule:evenodd;clip-rule:evenodd;fill:#FFFFFF;}
	.st1{fill:#FFFFFF;}
</style>
<path class="st0" d="M17.4,2.2C17,1.9,16.5,1.7,16,1.7c-0.6,0-1.1,0.2-1.5,0.6C11.6,4,5.5,7.6,2.6,9.4C1.7,9.7,1,10.5,1,11.5
	c0,0,0,0,0,0c0,0,0,0,0,0c0,0,0,0,0,0s0,0,0,0c0,2.5,0,9.3,0,11.9c0,0,0,0,0,0s0,0,0,0c0,0,0,0.1,0,0.2c0,0,0,0.1,0,0.1
	c0.1,0.6,0.4,1.2,0.8,1.6c0,0.1,0.1,0.1,0.2,0.2c2.2,1.3,7.6,4.5,11,6.6c0-3.1,0-10.4,0-13.5c0-0.6,0.5-1.8,1.4-2.3
	c3.2-1.6,10.8-6.3,13.5-8C24.7,6.6,19.8,3.7,17.4,2.2z M30,9.8c-2.8,1.7-10.5,6.4-13.6,8c-1.1,0.6-1.5,1.6-1.5,2.4
	c0,3.5,0,12.2,0,13.3c0.3,0.2,0.6,0.3,1,0.3c0.6,0,1.2-0.3,1.6-0.7c2.9-1.8,9.2-5.5,12-7.2c0.8-0.3,1.4-1.1,1.4-2c0,0,0,0,0,0
	c0,0,0-0.1,0-0.1c0-2.6,0-9.9,0-12.3c0-0.1,0-0.1-0.1-0.2C30.8,10.6,30.5,10.1,30,9.8z"/>
<g>
	<path class="st1" d="M49.5,19.2c-0.9,0.3-1.9,0.6-2.8,0.9v6.6c0,1.2-0.2,1.9-0.9,2.3c-0.7,0.4-1.8,0.5-3.4,0.5
		c-0.1-0.6-0.4-1.7-0.7-2.3c1,0,2,0,2.3,0c0.3,0,0.5-0.1,0.5-0.5v-5.9l-2.7,0.8l-0.6-2.4c0.9-0.2,2.1-0.5,3.3-0.9v-5.1h-3v-2.3h3V6
		h2.3v5h2.7v2.3h-2.7v4.4l2.4-0.7L49.5,19.2z M64.4,12H53.2v4.1c0,4-0.5,9.8-3.4,13.6c-0.4-0.4-1.5-1.1-2-1.4
		c2.8-3.5,3.1-8.5,3.1-12.2V9.7H57c-0.4-1-0.9-2.1-1.4-3.1L57.7,6c0.7,1.1,1.4,2.6,1.8,3.6l-0.4,0.1h5.3V12z"/>
	<path class="st1" d="M71.7,13.4v1.2c0,4.4-0.4,10.8-3,15c-0.5-0.4-1.5-1-2.1-1.2c2.5-4,2.8-9.6,2.8-13.7V7.1h19.3v6.3H71.7z
		 M71.7,9.2v2.2h14.5V9.2H71.7z M88.9,23.1c-1.1,0.8-2.5,1.7-3.7,2.3c1.4,1,3.2,1.7,5.2,2.1c-0.5,0.5-1.1,1.3-1.4,2
		c-4.5-1.1-7.6-3.7-9.3-7.6h-3.1v4.7l5-1.1c-0.1,0.6-0.2,1.5-0.2,2c-6.1,1.4-6.9,1.6-7.4,2v0c-0.2-0.6-0.6-1.5-1-2
		c0.5-0.3,1.3-1,1.3-2.1V22h-2.5v-2H76v-2.3h-3.6v-2H76v-2.2h2.2v2.2h4.6v-2.2H85v2.2h4v2h-4V20h5.1v2h-2.9L88.9,23.1z M78.2,20h4.6
		v-2.3h-4.6V20z M81.9,22c0.5,0.8,1.1,1.6,1.7,2.3c1.2-0.7,2.5-1.6,3.4-2.3H81.9z"/>
	<path class="st1" d="M114.6,10.4v12.3h-2.5v-1.4h-6.7v8.2H103v-8.2h-6.7v1.5h-2.4V10.4h9V5.9h2.5v4.5H114.6z M103,19v-6.2h-6.7V19
		H103z M112.1,19v-6.2h-6.7V19H112.1z"/>
	<path class="st1" d="M122.8,15.3c-0.4,3.2-1.1,7.5-2.1,10.3l-2.4-1c1-2.6,1.8-6.6,2.2-9.7L122.8,15.3z M127.2,13.1v12.3
		c0,1.2,0.3,1.4,1.6,1.4h4.3c1.5,0,1.7-0.8,1.9-5.1c0.6,0.4,1.6,0.9,2.2,1c-0.3,4.8-1,6.3-4,6.3h-4.8c-3,0-3.9-0.8-3.9-3.6V13.1
		H127.2z M127.4,6.6c2.4,1.6,5.5,3.9,7,5.5l-1.8,1.8c-1.4-1.6-4.5-4.1-6.9-5.7L127.4,6.6z M138.6,14.1c1.5,3.1,2.9,6.9,3.4,9.6
		l-2.4,1c-0.5-2.6-1.8-6.7-3.2-9.7L138.6,14.1z"/>
</g>
</svg>
